<svg width="400" height="400" viewBox="0 0 400 400" fill="none" xmlns="http://www.w3.org/2000/svg">
  <rect width="400" height="400" fill="#F0F0F0"/>

  <!-- QR Code Frame -->
  <rect x="80" y="80" width="240" height="240" fill="white" stroke="#3B82F6" stroke-width="8"/>

  <!-- QR Code Pattern Elements -->
  <rect x="110" y="110" width="40" height="40" fill="#3B82F6"/>
  <rect x="250" y="110" width="40" height="40" fill="#3B82F6"/>
  <rect x="110" y="250" width="40" height="40" fill="#3B82F6"/>

  <!-- QR Code Inner Elements -->
  <rect x="170" y="110" width="20" height="20" fill="#3B82F6"/>
  <rect x="210" y="110" width="20" height="20" fill="#3B82F6"/>
  <rect x="110" y="150" width="20" height="20" fill="#3B82F6"/>
  <rect x="150" y="150" width="20" height="20" fill="#3B82F6"/>
  <rect x="190" y="150" width="20" height="20" fill="#3B82F6"/>
  <rect x="230" y="150" width="20" height="20" fill="#3B82F6"/>
  <rect x="270" y="150" width="20" height="20" fill="#3B82F6"/>
  <rect x="110" y="190" width="20" height="20" fill="#3B82F6"/>
  <rect x="150" y="190" width="20" height="20" fill="#3B82F6"/>
  <rect x="230" y="190" width="20" height="20" fill="#3B82F6"/>
  <rect x="270" y="190" width="20" height="20" fill="#3B82F6"/>
  <rect x="150" y="230" width="20" height="20" fill="#3B82F6"/>
  <rect x="190" y="230" width="20" height="20" fill="#3B82F6"/>
  <rect x="230" y="230" width="20" height="20" fill="#3B82F6"/>
  <rect x="170" y="270" width="20" height="20" fill="#3B82F6"/>
  <rect x="210" y="270" width="20" height="20" fill="#3B82F6"/>
  <rect x="250" y="270" width="20" height="20" fill="#3B82F6"/>
</svg>