<svg xmlns="http://www.w3.org/2000/svg" width="24" height="24" viewBox="0 0 24 24" fill="none">
  <rect width="24" height="24" rx="12" fill="#F0FDFA"/>
  <rect x="4" y="4" width="12" height="12" rx="2" fill="#0EA5E9" stroke="#0284C7" stroke-width="1.5"/>
  <path d="M9 8L11 8" stroke="white" stroke-width="1.5" stroke-linecap="round"/>
  <path d="M8 11H9" stroke="white" stroke-width="1.5" stroke-linecap="round"/>
  <path d="M11 11H12" stroke="white" stroke-width="1.5" stroke-linecap="round"/>
  <path fill-rule="evenodd" clip-rule="evenodd" d="M20 10.5858C20 9.71425 19.0533 9.26951 18.4142 9.90858L12.5 15.8229L14.5 17.8229L19.4142 12.9087C20.0533 12.2697 19.6085 11.323 18.7369 11.323C18.5579 11.323 18.4142 11.1792 18.4142 11.0003C18.4142 10.4745 18.8284 10.0003 19.3541 10.0003C20.1578 10.0003 20.8112 10.654 20.8112 11.4577C20.8112 11.8379 20.6646 12.2007 20.4142 12.4786L15.2071 18.2571C14.8142 18.68 14.1858 18.68 13.7929 18.2571L11.7929 16.0786C11.6912 15.9697 11.6309 15.829 11.6208 15.6809C11.6105 15.5315 11.6506 15.3831 11.7322 15.2571L17.8251 8.27269C18.7781 7.15166 20.5611 7.43173 21.1405 8.84204C21.6962 10.1959 20.825 11.7229 19.4142 11.9928V13.0858C19.4142 13.8762 18.7762 14.5143 17.9858 14.5143C17.1953 14.5143 16.5573 13.8762 16.5573 13.0858C16.5573 13.0007 16.5653 12.9172 16.5809 12.8361C16.3827 12.9423 16.1614 13.0003 15.9286 13.0003C15.3728 13.0003 14.8998 12.6567 14.6943 12.1682C14.3042 12.4442 13.8295 12.6084 13.3227 12.6084C12.6603 12.6084 12.0694 12.3191 11.6651 11.8663L18.4142 5.11716C19.0533 4.47809 20 4.92283 20 5.79438V10.5858Z" fill="#A855F7" stroke="#7C3AED" stroke-width="0.5"/>
</svg>
