<svg xmlns="http://www.w3.org/2000/svg" width="24" height="24" viewBox="0 0 24 24" fill="none">
  <rect width="24" height="24" rx="12" fill="#F0F9FF"/>
  <rect x="4" y="4" width="7" height="7" rx="1" fill="#0EA5E9" stroke="#0EA5E9" stroke-width="1.5"/>
  <rect x="4" y="13" width="7" height="7" rx="1" fill="#0EA5E9" stroke="#0EA5E9" stroke-width="1.5"/>
  <rect x="13" y="4" width="7" height="7" rx="1" fill="#0EA5E9" stroke="#0EA5E9" stroke-width="1.5"/>
  <path d="M13 14H14V15H13V14Z" fill="#0EA5E9" stroke="#0EA5E9" stroke-width="0.5"/>
  <path d="M16 14H17V15H16V14Z" fill="#0EA5E9" stroke="#0EA5E9" stroke-width="0.5"/>
  <path d="M19 14H20V15H19V14Z" fill="#0EA5E9" stroke="#0EA5E9" stroke-width="0.5"/>
  <path d="M13 17H14V18H13V17Z" fill="#0EA5E9" stroke="#0EA5E9" stroke-width="0.5"/>
  <path d="M16 17H17V18H16V17Z" fill="#0EA5E9" stroke="#0EA5E9" stroke-width="0.5"/>
  <path d="M19 17H20V18H19V17Z" fill="#0EA5E9" stroke="#0EA5E9" stroke-width="0.5"/>
  <path d="M13 20H14V21H13V20Z" fill="#0EA5E9" stroke="#0EA5E9" stroke-width="0.5"/>
  <path d="M16 20H17V21H16V20Z" fill="#0EA5E9" stroke="#0EA5E9" stroke-width="0.5"/>
  <path d="M19 20H20V21H19V20Z" fill="#0EA5E9" stroke="#0EA5E9" stroke-width="0.5"/>
</svg>