<svg width="24" height="24" viewBox="0 0 24 24" fill="none" xmlns="http://www.w3.org/2000/svg">
  <path d="M23 4V10H17" stroke="#6B7280" stroke-width="2" stroke-linecap="round" stroke-linejoin="round"/>
  <path d="M1 20V14H7" stroke="#6B7280" stroke-width="2" stroke-linecap="round" stroke-linejoin="round"/>
  <path d="M3.51 9.00001C4.01717 7.56645 4.87913 6.28161 6.01547 5.27629C7.15181 4.27097 8.52547 3.57922 10.0083 3.26598C11.4911 2.95274 13.0348 3.02748 14.4761 3.48294C15.9175 3.93841 17.2089 4.75589 18.23 5.85001L23 10M1 14L5.77 18.15C6.79113 19.2441 8.08251 20.0616 9.52387 20.5171C10.9652 20.9725 12.5089 21.0473 13.9917 20.734C15.4745 20.4208 16.8482 19.729 17.9845 18.7237C19.1209 17.7184 19.9828 16.4336 20.49 15" stroke="#6B7280" stroke-width="2" stroke-linecap="round" stroke-linejoin="round"/>
</svg>