<svg width="24" height="24" viewBox="0 0 24 24" fill="none" xmlns="http://www.w3.org/2000/svg">
  <path d="M12 15C13.6569 15 15 13.6569 15 12C15 10.3431 13.6569 9 12 9C10.3431 9 9 10.3431 9 12C9 13.6569 10.3431 15 12 15Z" stroke="#6B7280" stroke-width="2" stroke-linecap="round" stroke-linejoin="round"/>
  <path d="M19.4 15C19.1277 15.8031 19.2207 16.6846 19.66 17.4C20.0993 18.1154 19.7575 19.0353 19.04 19.36L18.21 19.76C17.5308 20.0623 16.7175 19.7438 16.41 19.06C16.1808 18.602 15.7772 18.2556 15.2908 18.0931C14.8045 17.9306 14.2741 17.9647 13.81 18.19C13.3474 18.4102 13.0085 18.8089 12.88 19.29C12.7038 20.0129 12.0399 20.5223 11.29 20.5H10.54C9.78872 20.5414 9.11706 19.9989 9 19.25C8.88616 18.7663 8.56061 18.3547 8.11158 18.1139C7.66255 17.8732 7.13211 17.8225 6.65 17.97C5.97208 18.2906 5.14571 17.9702 4.85 17.29L4.44 16.46C4.10671 15.7422 4.44576 14.8993 5.16 14.54C5.95825 14.1121 6.48854 13.352 6.63113 12.4751C6.77372 11.5982 6.51254 10.7031 5.92 10.03C5.41645 9.40516 5.41645 8.49484 5.92 7.87L6.49 7.12C7.0013 6.50617 7.91147 6.40376 8.55 6.88C9.25233 7.4664 10.1748 7.69649 11.05 7.5C11.9282 7.30442 12.6636 6.71768 13.05 5.91C13.3412 5.18033 14.1065 4.77968 14.86 4.94L15.75 5.12C16.5507 5.28424 17.0736 6.06818 16.93 6.87C16.7802 7.74099 17.0113 8.63634 17.58 9.32C18.1487 10.0037 18.9985 10.4135 19.9 10.43C20.6239 10.4561 21.2119 11.0348 21.25 11.76V12.82C21.2101 13.5424 20.6346 14.1125 19.91 14.16L19.4 15Z" stroke="#6B7280" stroke-width="2" stroke-linecap="round" stroke-linejoin="round"/>
</svg>
